{"title":"The Lord of the Rings, The Fellowship of the Ring 2001 DVDrip En","uid":6864057,"size":2630286543,"categoryP":"video","categoryS":"movies","magnet":"?xt=urn:btih:965f128e703da324f5737e9679025cf758008e25&amp;dn=The+Lord+of+the+Rings%2C+The+Fellowship+of+the+Ring+2001+DVDrip+En&amp;tr=udp%3A%2F%2Ftracker.openbittorrent.com%3A80&amp;tr=udp%3A%2F%2Fopen.demonii.com%3A1337&amp;tr=udp%3A%2F%2Ftracker.coppersurfer.tk%3A6969&amp;tr=udp%3A%2F%2Fexodus.desync.com%3A6969","seeders":1,"leechers":1,"uploader":"Klambake","files":-1,"time":1323025978,"description":"With: Elijah Wood, Ian McKellen and Viggo Mortensen\n\nEen eeuwenoude ring, die jaren zoek is geweest, wordt gevonden en komt bij toeval terecht bij de kleine Hobbit Frodo. Als de tovenaar Gandalf erachter komt dat deze ring eigenlijk de Ene Ring is waar de slechte Sauron naar op zoek is, gaat Frodo samen met Gandalf, een Dwerg, een Elf, twee Mensen en drie andere Hobbits op een groots avontuur om deze te vernietigen.\n\nIn a small village in the Shire a young Hobbit named Frodo has been entrusted with an ancient Ring. Now he must embark on an Epic quest to the Cracks of Doom in order to destroy it. \n\n------------------------ Dutch Friends ------------------------\n---------------------------------------------------------------\n- Bezoek ook eens mijn vrienden op: &lt;a href=&quot; http://www.Film-Test.nl&quot; rel=&quot;nofollow&quot; target=&quot;_NEW&quot;&gt; http://www.Film-Test.nl&lt;/a&gt; --\n----- voor mijn Nederlandse Sync. ondertitels ---- en meer ----\n------- http://www.Film-Test.nl ---- voor Films en meer -------\n---------------------------------------------------------------\n\nGeneral:\n\nComplete name                    : The Lord of the Rings\\01The Fellowship of the Ring.avi\nFormat                           : AVI\nFormat/Info                      : Audio Video Interleave\nFile size                        : 2.45 GiB\nDuration                         : 2h 51mn\nOverall bit rate                 : 2 050 Kbps\n\nVideo:\n\nFormat                           : MPEG-4 Visual\nFormat profile                   : Simple@L3\nFormat settings, BVOP            : No\nFormat settings, QPel            : No\nFormat settings, GMC             : No warppoints\nFormat settings, Matrix          : Default (H.263)\nCodec ID                         : XVID\nCodec ID/Hint                    : XviD\nDuration                         : 2h 51mn\nBit rate                         : 1 591 Kbps\nWidth                            : 720 pixels\nHeight                           : 304 pixels\nDisplay aspect ratio             : 2.35:1\nFrame rate                       : 25.000 fps\nColor space                      : YUV\nChroma subsampling               : 4:2:0\nBit depth                        : 8 bits\nScan type                        : Progressive\nCompression mode                 : Lossy\nBits/(Pixel*Frame)               : 0.291\nStream size                      : 1.90 GiB (78%)\nWriting library                  : XviD 1.1.2 (UTC 2006-11-01)\n\nAudio:\n\nFormat                           : AC-3\nFormat/Info                      : Audio Coding 3\nMode extension                   : CM (complete main)\nCodec ID                         : 2000\nDuration                         : 2h 51mn\nBit rate mode                    : Constant\nBit rate                         : 448 Kbps\nChannel(s)                       : 6 channels\nChannel positions                : Front: L C R, Side: L R, LFE\nSampling rate                    : 48.0 KHz\nBit depth                        : 16 bits\nCompression mode                 : Lossy\nStream size                      : 548 MiB (22%)\nAlignment                        : Aligned on interleaves\nInterleave, duration             : 32 ms (0.80 video frame)\nInterleave, preload duration     : 512 ms\n\n","torrent":{"xt":"urn:btih:965f128e703da324f5737e9679025cf758008e25","amp;dn":"The+Lord+of+the+Rings%2C+The+Fellowship+of+the+Ring+2001+DVDrip+En","amp;tr":["udp%3A%2F%2Ftracker.openbittorrent.com%3A80","udp%3A%2F%2Fopen.demonii.com%3A1337","udp%3A%2F%2Ftracker.coppersurfer.tk%3A6969","udp%3A%2F%2Fexodus.desync.com%3A6969"],"infoHash":"965f128e703da324f5737e9679025cf758008e25","infoHashBuffer":{"type":"Buffer","data":[150,95,18,142,112,61,163,36,245,115,126,150,121,2,92,247,88,0,142,37]},"announce":[],"urlList":[]}}